<mxfile host="app.diagrams.net" modified="2022-03-10T09:03:54.209Z" agent="5.0 (X11; Linux x86_64) AppleWebKit/537.36 (KHTML, like Gecko) Chrome/98.0.4758.102 Safari/537.36" etag="wwEJ-FaW7VdOm3oeAcSm" version="17.1.0" type="github">
  <diagram id="QznHV2y_hJcCz-hNqc2l" name="Page-1">
    <mxGraphModel dx="1422" dy="800" grid="1" gridSize="10" guides="1" tooltips="1" connect="1" arrows="1" fold="1" page="1" pageScale="1" pageWidth="827" pageHeight="1169" math="0" shadow="0">
      <root>
        <mxCell id="0" />
        <mxCell id="1" parent="0" />
        <mxCell id="gIslRy5SEYikWLrdMrFY-2" value="" style="rounded=0;whiteSpace=wrap;html=1;fillColor=none;" parent="1" vertex="1">
          <mxGeometry x="120" y="90" width="340" height="320" as="geometry" />
        </mxCell>
        <mxCell id="gIslRy5SEYikWLrdMrFY-5" style="edgeStyle=orthogonalEdgeStyle;rounded=0;orthogonalLoop=1;jettySize=auto;html=1;exitX=1;exitY=0.5;exitDx=0;exitDy=0;startArrow=classic;startFill=1;" parent="1" source="gIslRy5SEYikWLrdMrFY-1" target="gIslRy5SEYikWLrdMrFY-4" edge="1">
          <mxGeometry relative="1" as="geometry" />
        </mxCell>
        <mxCell id="gIslRy5SEYikWLrdMrFY-1" value="K8S" style="rounded=0;whiteSpace=wrap;html=1;" parent="1" vertex="1">
          <mxGeometry x="160" y="230" width="80" height="110" as="geometry" />
        </mxCell>
        <mxCell id="gIslRy5SEYikWLrdMrFY-3" value="HOST&lt;br&gt;宿主机" style="text;html=1;align=center;verticalAlign=middle;resizable=0;points=[];autosize=1;strokeColor=none;" parent="1" vertex="1">
          <mxGeometry x="380" y="380" width="50" height="30" as="geometry" />
        </mxCell>
        <mxCell id="ahdFj35DdlV10EUc5Jy--3" style="edgeStyle=orthogonalEdgeStyle;rounded=0;orthogonalLoop=1;jettySize=auto;html=1;exitX=0.5;exitY=0;exitDx=0;exitDy=0;startArrow=classic;startFill=1;" edge="1" parent="1" source="gIslRy5SEYikWLrdMrFY-4" target="ahdFj35DdlV10EUc5Jy--1">
          <mxGeometry relative="1" as="geometry" />
        </mxCell>
        <mxCell id="gIslRy5SEYikWLrdMrFY-4" value="CNI&lt;br&gt;BIN" style="rounded=0;whiteSpace=wrap;html=1;" parent="1" vertex="1">
          <mxGeometry x="350" y="230" width="80" height="110" as="geometry" />
        </mxCell>
        <mxCell id="ahdFj35DdlV10EUc5Jy--1" value="CNI&lt;br&gt;Server" style="rounded=0;whiteSpace=wrap;html=1;" vertex="1" parent="1">
          <mxGeometry x="350" y="100" width="80" height="60" as="geometry" />
        </mxCell>
        <mxCell id="ahdFj35DdlV10EUc5Jy--2" value="&lt;span style=&quot;color: rgb(0, 0, 0); font-family: helvetica; font-size: 12px; font-style: normal; font-weight: 400; letter-spacing: normal; text-align: center; text-indent: 0px; text-transform: none; word-spacing: 0px; background-color: rgb(248, 249, 250); display: inline; float: none;&quot;&gt;POD/NS/ARG&lt;/span&gt;" style="text;whiteSpace=wrap;html=1;" vertex="1" parent="1">
          <mxGeometry x="260" y="260" width="100" height="30" as="geometry" />
        </mxCell>
      </root>
    </mxGraphModel>
  </diagram>
</mxfile>
